<?xml version="1.0" encoding="UTF-8" standalone="no"?>
<!-- Created with Inkscape (http://www.inkscape.org/) -->

<svg
   width="112mm"
   height="112mm"
   viewBox="0 0 112 112"
   version="1.1"
   id="svg1"
   xml:space="preserve"
   inkscape:version="1.4.2 (f4327f4, 2025-05-13)"
   sodipodi:docname="restart.svg"
   inkscape:export-filename="croco-holding-coffee.png"
   inkscape:export-xdpi="576"
   inkscape:export-ydpi="576"
   xmlns:inkscape="http://www.inkscape.org/namespaces/inkscape"
   xmlns:sodipodi="http://sodipodi.sourceforge.net/DTD/sodipodi-0.dtd"
   xmlns="http://www.w3.org/2000/svg"
   xmlns:svg="http://www.w3.org/2000/svg"><sodipodi:namedview
     id="namedview1"
     pagecolor="#ffffff"
     bordercolor="#000000"
     borderopacity="0.25"
     inkscape:showpageshadow="2"
     inkscape:pageopacity="0.0"
     inkscape:pagecheckerboard="0"
     inkscape:deskcolor="#d1d1d1"
     inkscape:document-units="mm"
     inkscape:zoom="1.4142135"
     inkscape:cx="157.33127"
     inkscape:cy="221.67799"
     inkscape:window-width="2560"
     inkscape:window-height="1369"
     inkscape:window-x="1912"
     inkscape:window-y="-8"
     inkscape:window-maximized="1"
     inkscape:current-layer="svg1"
     showgrid="true"><inkscape:grid
       id="grid1"
       units="mm"
       originx="0"
       originy="0"
       spacingx="0.99999997"
       spacingy="0.99999997"
       empcolor="#0099e5"
       empopacity="0.30196078"
       color="#0099e5"
       opacity="0.14901961"
       empspacing="8"
       enabled="true"
       visible="true" /></sodipodi:namedview><defs
     id="defs1"><inkscape:path-effect
       effect="fillet_chamfer"
       id="path-effect150"
       is_visible="true"
       lpeversion="1"
       nodesatellites_param="F,0,0,1,0,0,0,1 @ F,0,0,1,0,0,0,1 @ F,0,0,1,0,0,0,1 @ F,0,0,1,0,0,0,1 @ F,0,0,1,0,0,0,1 @ F,0,0,1,0,0,0,1 | F,0,0,1,0,0,0,1 @ F,0,0,1,0,0,0,1 @ F,0,0,1,0,0,0,1"
       radius="0"
       unit="px"
       method="auto"
       mode="F"
       chamfer_steps="1"
       flexible="false"
       use_knot_distance="true"
       apply_no_radius="true"
       apply_with_radius="true"
       only_selected="false"
       hide_knots="false" /><inkscape:path-effect
       effect="fillet_chamfer"
       id="path-effect120"
       is_visible="true"
       lpeversion="1"
       nodesatellites_param="F,0,0,1,0,0,0,1 @ F,0,0,1,0,0,0,1 @ F,0,0,1,0,0,0,1 @ F,0,0,1,0,0,0,1 @ F,0,0,1,0,0,0,1 @ F,0,0,1,0,0,0,1 | F,0,0,1,0,0,0,1 @ F,0,0,1,0,0,0,1 @ F,0,0,1,0,0,0,1"
       radius="0"
       unit="px"
       method="auto"
       mode="F"
       chamfer_steps="1"
       flexible="false"
       use_knot_distance="true"
       apply_no_radius="true"
       apply_with_radius="true"
       only_selected="false"
       hide_knots="false" /><inkscape:path-effect
       effect="fillet_chamfer"
       id="path-effect105"
       is_visible="true"
       lpeversion="1"
       nodesatellites_param="F,0,0,1,0,0,0,1 @ F,0,0,1,0,0,0,1 @ F,0,0,1,0,0,0,1 @ F,0,0,1,0,0,0,1 @ F,0,0,1,0,0,0,1 @ F,0,0,1,0,0,0,1 | F,0,0,1,0,0,0,1 @ F,0,0,1,0,0,0,1 @ F,0,0,1,0,0,0,1"
       radius="0"
       unit="px"
       method="auto"
       mode="F"
       chamfer_steps="1"
       flexible="false"
       use_knot_distance="true"
       apply_no_radius="true"
       apply_with_radius="true"
       only_selected="false"
       hide_knots="false" /><inkscape:path-effect
       effect="fillet_chamfer"
       id="path-effect60"
       is_visible="true"
       lpeversion="1"
       nodesatellites_param="F,0,0,1,0,0,0,1 @ F,0,0,1,0,0,0,1 @ F,0,0,1,0,0,0,1 @ F,0,0,1,0,0,0,1 @ F,0,0,1,0,0,0,1 @ F,0,0,1,0,0,0,1 | F,0,0,1,0,0,0,1 @ F,0,0,1,0,0,0,1 @ F,0,0,1,0,0,0,1"
       radius="0"
       unit="px"
       method="auto"
       mode="F"
       chamfer_steps="1"
       flexible="false"
       use_knot_distance="true"
       apply_no_radius="true"
       apply_with_radius="true"
       only_selected="false"
       hide_knots="false" /><inkscape:path-effect
       effect="bspline"
       id="path-effect13"
       is_visible="true"
       lpeversion="1.3"
       weight="33.333333"
       steps="2"
       helper_size="0"
       apply_no_weight="true"
       apply_with_weight="true"
       only_selected="false"
       uniform="false" /><inkscape:path-effect
       effect="spiro"
       id="path-effect26"
       is_visible="true"
       lpeversion="1" /><inkscape:path-effect
       effect="simplify"
       id="path-effect25"
       is_visible="true"
       lpeversion="1.3"
       threshold="5000"
       steps="1"
       smooth_angles="360"
       helper_size="0"
       simplify_individual_paths="false"
       simplify_just_coalesce="false" /><inkscape:path-effect
       effect="spiro"
       id="path-effect17"
       is_visible="true"
       lpeversion="1" /><inkscape:path-effect
       effect="simplify"
       id="path-effect15"
       is_visible="true"
       lpeversion="1.3"
       threshold="5000"
       steps="1"
       smooth_angles="360"
       helper_size="0"
       simplify_individual_paths="false"
       simplify_just_coalesce="false" /><inkscape:path-effect
       effect="spiro"
       id="path-effect12"
       is_visible="true"
       lpeversion="1" /><inkscape:path-effect
       effect="simplify"
       id="path-effect11"
       is_visible="true"
       lpeversion="1.3"
       threshold="5000"
       steps="1"
       smooth_angles="360"
       helper_size="0"
       simplify_individual_paths="false"
       simplify_just_coalesce="false" /><inkscape:path-effect
       effect="spiro"
       id="path-effect9"
       is_visible="true"
       lpeversion="1" /><inkscape:path-effect
       effect="simplify"
       id="path-effect8"
       is_visible="true"
       lpeversion="1.3"
       threshold="5000"
       steps="1"
       smooth_angles="360"
       helper_size="0"
       simplify_individual_paths="false"
       simplify_just_coalesce="false" /></defs><rect
     style="fill:#400093;stroke:#000000;stroke-width:1.01483;paint-order:stroke fill markers;fill-opacity:1"
     id="rect1"
     width="96"
     height="96"
     x="7.9999995"
     y="7.9999995"
     ry="12.534942" /><path
     d="m 27.021924,65.041306 h -3.187402 l -6.176367,-7.342188 h -3.460254 v 7.342188 h -2.455664 v -18.46709 h 5.171777 q 1.674317,0 2.790528,0.223242 1.116211,0.21084 2.009179,0.768945 1.00459,0.63252 1.562696,1.599903 0.570507,0.95498 0.570507,2.430859 0,1.996777 -1.004589,3.348633 -1.00459,1.339453 -2.765723,2.021582 z M 21.279639,51.770798 q 0,-0.79375 -0.285254,-1.401465 -0.272851,-0.620117 -0.917773,-1.041797 -0.533301,-0.359668 -1.265039,-0.496093 -0.731738,-0.148829 -1.723926,-0.148829 h -2.889746 v 6.970117 h 2.480469 q 1.16582,0 2.033984,-0.198437 0.868164,-0.21084 1.475879,-0.768945 0.558105,-0.520899 0.818555,-1.190625 0.272851,-0.682129 0.272851,-1.723926 z m 18.913573,6.585644 H 29.986084 q 0,1.277442 0.384472,2.232422 0.384473,0.942578 1.054199,1.550293 0.644922,0.595313 1.525489,0.892969 0.892968,0.297656 1.95957,0.297656 1.413867,0 2.840137,-0.558105 1.438671,-0.570508 2.046386,-1.116211 h 0.124024 v 2.54248 q -1.178223,0.496094 -2.406055,0.830957 -1.227832,0.334863 -2.579687,0.334863 -3.447852,0 -5.382617,-1.860351 -1.934766,-1.872754 -1.934766,-5.308203 0,-3.398242 1.847949,-5.39502 1.860352,-1.996777 4.886523,-1.996777 2.80293,0 4.316016,1.637109 1.525488,1.63711 1.525488,4.650879 z m -2.269629,-1.785937 q -0.0124,-1.835547 -0.930175,-2.840137 -0.905371,-1.00459 -2.765723,-1.00459 -1.872754,0 -2.988965,1.103809 -1.103808,1.103809 -1.252636,2.740918 z m 15.701366,4.477246 q 0,1.897558 -1.575098,3.112988 -1.562695,1.21543 -4.278808,1.21543 -1.537891,0 -2.827735,-0.359668 -1.277441,-0.37207 -2.145605,-0.806152 v -2.616895 h 0.124023 q 1.103809,0.830957 2.455664,1.327051 1.351856,0.483691 2.59209,0.483691 1.537891,0 2.406055,-0.496094 0.868164,-0.496093 0.868164,-1.562695 0,-0.818555 -0.471289,-1.240234 -0.471289,-0.42168 -1.810742,-0.719336 -0.496094,-0.111621 -1.302247,-0.260449 -0.79375,-0.148828 -1.451074,-0.322461 -1.823144,-0.483692 -2.59209,-1.413867 -0.756543,-0.942579 -0.756543,-2.306836 0,-0.855762 0.347266,-1.612305 0.359668,-0.756543 1.079004,-1.351855 0.694531,-0.582911 1.761133,-0.917774 1.079004,-0.347265 2.406054,-0.347265 1.240235,0 2.505274,0.310058 1.277441,0.297656 2.120801,0.731738 v 2.492871 h -0.124024 q -0.892969,-0.657324 -2.17041,-1.103808 -1.277441,-0.458887 -2.505273,-0.458887 -1.277442,0 -2.158008,0.496094 -0.880567,0.483691 -0.880567,1.451074 0,0.855762 0.533301,1.289844 0.520899,0.434082 1.686719,0.706933 0.644922,0.148829 1.438672,0.297657 0.806152,0.148828 1.339453,0.272851 1.624707,0.37207 2.505273,1.277442 0.880567,0.917773 0.880567,2.430859 z m 10.529592,3.869531 q -0.657324,0.173633 -1.438672,0.285254 -0.768945,0.111621 -1.37666,0.111621 -2.120801,0 -3.224609,-1.141016 -1.103809,-1.141015 -1.103809,-3.658691 v -7.366992 h -1.575098 v -1.95957 h 1.575098 v -3.981153 h 2.331641 v 3.981153 h 4.812109 v 1.95957 h -4.812109 v 6.312793 q 0,1.091406 0.04961,1.711523 0.04961,0.607715 0.347266,1.141016 0.272851,0.496094 0.74414,0.731738 0.483692,0.223242 1.463477,0.223242 0.570508,0 1.190625,-0.16123 0.620117,-0.173633 0.892968,-0.285254 h 0.124024 z m 13.580565,0.124024 h -2.319239 v -1.475879 q -0.310058,0.210839 -0.843359,0.595312 -0.520898,0.37207 -1.016992,0.595313 -0.58291,0.285254 -1.339453,0.471289 -0.756543,0.198437 -1.773535,0.198437 -1.872754,0 -3.175,-1.240234 -1.302246,-1.240235 -1.302246,-3.162598 0,-1.575097 0.669726,-2.54248 0.682129,-0.979785 1.934766,-1.537891 1.265039,-0.558105 3.038574,-0.756543 1.773535,-0.198437 3.807519,-0.297656 v -0.359668 q 0,-0.79375 -0.285253,-1.314648 -0.272852,-0.520899 -0.79375,-0.818555 -0.496094,-0.285254 -1.190625,-0.384473 -0.694532,-0.09922 -1.451075,-0.09922 -0.917773,0 -2.046386,0.248046 -1.128614,0.235645 -2.331641,0.694532 h -0.124023 v -2.368848 q 0.682129,-0.186035 1.971972,-0.409277 1.289844,-0.223242 2.542481,-0.223242 1.463476,0 2.54248,0.248046 1.091406,0.235645 1.885156,0.818555 0.781348,0.570508 1.190625,1.475879 0.409278,0.905371 0.409278,2.244824 z m -2.319239,-3.410645 v -3.857129 q -1.066601,0.06201 -2.517675,0.186035 -1.438672,0.124024 -2.282032,0.359668 -1.004589,0.285254 -1.624707,0.892969 -0.620117,0.595313 -0.620117,1.649512 0,1.190625 0.719336,1.79834 0.719336,0.595312 2.195215,0.595312 1.227832,0 2.244824,-0.471289 1.016992,-0.483691 1.885156,-1.153418 z m 15.453317,-7.900293 h -0.124023 q -0.520899,-0.124023 -1.016993,-0.173633 -0.483691,-0.06201 -1.153418,-0.06201 -1.079004,0 -2.083593,0.483691 -1.00459,0.471289 -1.934766,1.227832 v 9.835059 H 82.22475 V 51.187888 h 2.331641 v 2.046386 q 1.389063,-1.11621 2.443262,-1.575097 1.066601,-0.471289 2.17041,-0.471289 0.607715,0 0.880566,0.03721 0.272852,0.0248 0.818555,0.111621 z m 9.388576,11.186914 q -0.657321,0.173633 -1.438669,0.285254 -0.768945,0.111621 -1.37666,0.111621 -2.120801,0 -3.22461,-1.141016 -1.103808,-1.141015 -1.103808,-3.658691 v -7.366992 h -1.575098 v -1.95957 h 1.575098 v -3.981153 h 2.33164 v 3.981153 h 4.812107 v 1.95957 h -4.812107 v 6.312793 q 0,1.091406 0.04961,1.711523 0.04961,0.607715 0.347265,1.141016 0.272852,0.496094 0.744141,0.731738 0.483691,0.223242 1.463477,0.223242 0.570507,0 1.190625,-0.16123 0.620117,-0.173633 0.892969,-0.285254 h 0.12402 z"
     id="text1"
     style="font-size:25.4px;font-family:Sans;-inkscape-font-specification:'Sans, Normal';fill:#ffa836;paint-order:stroke fill markers"
     aria-label="Restart" /></svg>
